<svg width="16" height="16" viewBox="0 0 16 16" fill="none" xmlns="http://www.w3.org/2000/svg">
<path fill-rule="evenodd" clip-rule="evenodd" d="M8 1.33334L4.33333 7.33334H11.6667L8 1.33334ZM7.99998 3.89334L9.28665 6.00001H6.70665L7.99998 3.89334ZM11.6667 8.66668C10.0067 8.66668 8.66667 10.0067 8.66667 11.6667C8.66667 13.3267 10.0067 14.6667 11.6667 14.6667C13.3267 14.6667 14.6667 13.3267 14.6667 11.6667C14.6667 10.0067 13.3267 8.66668 11.6667 8.66668ZM11.6667 13.3333C10.7467 13.3333 10 12.5867 10 11.6667C10 10.7467 10.7467 10 11.6667 10C12.5867 10 13.3333 10.7467 13.3333 11.6667C13.3333 12.5867 12.5867 13.3333 11.6667 13.3333ZM2 14.3333H7.33333V9.00001H2V14.3333ZM3.33333 10.3333H6V13H3.33333V10.3333Z" fill="#1D1D1D"/>
</svg>
