<svg width="16" height="16" viewBox="0 0 16 16" fill="none" xmlns="http://www.w3.org/2000/svg">
<path fill-rule="evenodd" clip-rule="evenodd" d="M7.71345 8.77332C6.80678 8.95999 6.26678 9.54666 6.26678 10.38C6.26678 11.2733 7.00678 11.9933 7.92678 11.9933C9.29345 11.9933 10.4001 10.8867 10.4001 9.51999C10.4001 8.80666 10.3001 8.10666 10.0934 7.43999C9.56678 8.15332 8.62678 8.58666 7.71345 8.77332ZM9.00008 0.446655C9.00008 0.446655 9.49341 2.21332 9.49341 3.64666C9.49341 5.01999 8.59341 6.13332 7.22008 6.13332C5.84008 6.13332 4.80008 5.01999 4.80008 3.64666L4.82008 3.40666C3.47341 5.00666 2.66675 7.07999 2.66675 9.33332C2.66675 12.28 5.05341 14.6667 8.00008 14.6667C10.9467 14.6667 13.3334 12.28 13.3334 9.33332C13.3334 5.73999 11.6067 2.53332 9.00008 0.446655ZM8.00008 13.3333C5.79341 13.3333 4.00008 11.54 4.00008 9.33332C4.00008 8.31332 4.20008 7.30665 4.57341 6.37999C5.24675 7.05332 6.18008 7.46665 7.22008 7.46665C8.99341 7.46665 10.3867 6.24665 10.7401 4.51332C11.5601 5.97999 12.0001 7.62665 12.0001 9.33332C12.0001 11.54 10.2067 13.3333 8.00008 13.3333Z" fill="#1D1D1D"/>
</svg>
