<svg width="16" height="16" viewBox="0 0 16 16" fill="none" xmlns="http://www.w3.org/2000/svg">
<path fill-rule="evenodd" clip-rule="evenodd" d="M14.0001 4C14.7334 4 15.3334 4.6 15.3334 5.33333V10.6667C15.3334 11.4 14.7334 12 14.0001 12H2.00008C1.26675 12 0.666748 11.4 0.666748 10.6667V5.33333C0.666748 4.6 1.26675 4 2.00008 4H14.0001ZM14.0001 10.6667V5.33333H2.00008V10.6667H14.0001ZM4.00008 10V8.66667H2.66675V7.33333H4.00008V6H5.33341V7.33333H6.66675V8.66667H5.33341V10H4.00008ZM9.66675 10C9.11446 10 8.66675 9.55228 8.66675 9C8.66675 8.44772 9.11446 8 9.66675 8C10.219 8 10.6667 8.44772 10.6667 9C10.6667 9.55228 10.219 10 9.66675 10ZM12.3334 8C11.7811 8 11.3334 7.55228 11.3334 7C11.3334 6.44772 11.7811 6 12.3334 6C12.8857 6 13.3334 6.44772 13.3334 7C13.3334 7.55228 12.8857 8 12.3334 8Z" fill="#1D1D1D"/>
</svg>
