<svg width="16" height="16" viewBox="0 0 16 16" fill="none" xmlns="http://www.w3.org/2000/svg">
<path fill-rule="evenodd" clip-rule="evenodd" d="M15.3334 8.00001L13.7067 6.14667L13.9334 3.69334L11.5267 3.14667L10.2667 1.02667L8.00008 2.00001L5.73341 1.02667L4.47341 3.14667L2.06675 3.68667L2.29341 6.14001L0.666748 8.00001L2.29341 9.85334L2.06675 12.3133L4.47341 12.86L5.73341 14.98L8.00008 14L10.2667 14.9733L11.5267 12.8533L13.9334 12.3067L13.7067 9.85334L15.3334 8.00001ZM12.3268 9.40667L12.5001 11.2667L10.6734 11.68L9.72011 13.2867L8.00011 12.5467L6.28011 13.2867L5.32678 11.68L3.50011 11.2667L3.67344 9.4L2.44011 8.00001L3.67344 6.58667L3.50011 4.73334L5.32678 4.32667L6.28011 2.72001L8.00011 3.45334L9.72011 2.71334L10.6734 4.32001L12.5001 4.73334L12.3268 6.59334L13.5601 8.00001L12.3268 9.40667V9.40667ZM7.33342 10H8.66675V11.3333H7.33342V10ZM7.33342 4.66668H8.66675V8.66668H7.33342V4.66668Z" fill="#1D1D1D"/>
</svg>
