<svg width="24" height="24" viewBox="0 0 24 24" fill="none" xmlns="http://www.w3.org/2000/svg">
<path fill-rule="evenodd" clip-rule="evenodd" d="M12.048 17.232H13.008C13.008 17.232 13.296 17.184 13.44 17.04C13.584 16.896 13.584 16.608 13.584 16.608C13.584 16.608 13.584 15.36 14.16 15.168C14.736 14.976 15.504 16.416 16.272 16.944C16.848 17.376 17.28 17.28 17.28 17.28L19.392 17.232C19.392 17.232 20.496 17.184 19.968 16.272C19.92 16.224 19.68 15.648 18.384 14.448C17.04 13.2 17.232 13.44 18.816 11.28C19.776 9.98401 20.16 9.21601 20.064 8.83201C19.968 8.49601 19.248 8.59201 19.248 8.59201H16.848C16.848 8.59201 16.656 8.54401 16.56 8.64001C16.416 8.73601 16.368 8.88001 16.368 8.88001C16.368 8.88001 15.984 9.88801 15.504 10.752C14.448 12.528 14.016 12.624 13.872 12.528C13.488 12.288 13.584 11.472 13.584 10.944C13.584 9.21601 13.872 8.49601 13.056 8.30401C12.816 8.25601 12.624 8.20801 11.952 8.20801C11.088 8.20801 10.368 8.20801 9.98401 8.40001C9.69601 8.54401 9.50401 8.83201 9.64801 8.83201C9.79201 8.83201 10.176 8.92801 10.368 9.16801C10.56 9.60001 10.56 10.32 10.56 10.32C10.56 10.32 10.704 12.384 10.224 12.624C9.88801 12.816 9.45601 12.432 8.49601 10.8C8.01601 9.98401 7.63201 9.02401 7.63201 9.02401C7.63201 9.02401 7.58401 8.83201 7.44001 8.73601C7.29601 8.64001 7.05601 8.59201 7.05601 8.59201H4.80001C4.80001 8.59201 4.46401 8.59201 4.32001 8.73601C4.22401 8.88001 4.32001 9.12001 4.32001 9.12001C4.32001 9.12001 6.09601 13.248 8.11201 15.36C9.98401 17.376 12.048 17.232 12.048 17.232Z" fill="#2A2A2A"/>
</svg>
