<svg width="125" height="50" viewBox="0 0 125 50" fill="none" xmlns="http://www.w3.org/2000/svg">
<path d="M10.608 11H13.632V22.424C13.632 24.28 13.016 25.696 11.784 26.672C10.568 27.648 9.096 28.136 7.368 28.136C6.072 28.136 4.928 27.888 3.936 27.392C2.96 26.896 2.208 26.168 1.68 25.208L4.32 23.696C4.928 24.816 5.976 25.376 7.464 25.376C8.44 25.376 9.208 25.12 9.768 24.608C10.328 24.096 10.608 23.368 10.608 22.424V21.128C9.696 22.344 8.416 22.952 6.768 22.952C5.072 22.952 3.648 22.36 2.496 21.176C1.36 19.976 0.792 18.52 0.792 16.808C0.792 15.112 1.368 13.664 2.52 12.464C3.672 11.264 5.088 10.664 6.768 10.664C8.416 10.664 9.696 11.272 10.608 12.488V11ZM4.824 19.184C5.464 19.792 6.272 20.096 7.248 20.096C8.224 20.096 9.024 19.792 9.648 19.184C10.288 18.56 10.608 17.768 10.608 16.808C10.608 15.864 10.288 15.088 9.648 14.48C9.024 13.856 8.224 13.544 7.248 13.544C6.272 13.544 5.464 13.856 4.824 14.48C4.2 15.088 3.888 15.864 3.888 16.808C3.888 17.768 4.2 18.56 4.824 19.184ZM25.5594 11H28.6554V23H25.5594V21.584C24.6314 22.752 23.3274 23.336 21.6474 23.336C20.0474 23.336 18.6714 22.728 17.5194 21.512C16.3834 20.28 15.8154 18.776 15.8154 17C15.8154 15.224 16.3834 13.728 17.5194 12.512C18.6714 11.28 20.0474 10.664 21.6474 10.664C23.3274 10.664 24.6314 11.248 25.5594 12.416V11ZM19.8474 19.448C20.4714 20.072 21.2634 20.384 22.2234 20.384C23.1834 20.384 23.9754 20.072 24.5994 19.448C25.2394 18.808 25.5594 17.992 25.5594 17C25.5594 16.008 25.2394 15.2 24.5994 14.576C23.9754 13.936 23.1834 13.616 22.2234 13.616C21.2634 13.616 20.4714 13.936 19.8474 14.576C19.2234 15.2 18.9114 16.008 18.9114 17C18.9114 17.992 19.2234 18.808 19.8474 19.448ZM44.7349 10.664C46.1109 10.664 47.2069 11.112 48.0229 12.008C48.8549 12.904 49.2709 14.104 49.2709 15.608V23H46.1749V15.824C46.1749 15.104 45.9989 14.544 45.6469 14.144C45.2949 13.744 44.7989 13.544 44.1589 13.544C43.4549 13.544 42.9029 13.776 42.5029 14.24C42.1189 14.704 41.9269 15.376 41.9269 16.256V23H38.8309V15.824C38.8309 15.104 38.6549 14.544 38.3029 14.144C37.9509 13.744 37.4549 13.544 36.8149 13.544C36.1269 13.544 35.5749 13.776 35.1589 14.24C34.7589 14.704 34.5589 15.376 34.5589 16.256V23H31.4629V11H34.5589V12.272C35.2789 11.2 36.3909 10.664 37.8949 10.664C39.3669 10.664 40.4549 11.24 41.1589 12.392C41.9589 11.24 43.1509 10.664 44.7349 10.664ZM54.5164 18.272C54.9324 19.776 56.0604 20.528 57.9004 20.528C59.0844 20.528 59.9804 20.128 60.5884 19.328L63.0844 20.768C61.9004 22.48 60.1564 23.336 57.8524 23.336C55.8684 23.336 54.2764 22.736 53.0764 21.536C51.8764 20.336 51.2764 18.824 51.2764 17C51.2764 15.192 51.8684 13.688 53.0524 12.488C54.2364 11.272 55.7564 10.664 57.6124 10.664C59.3724 10.664 60.8204 11.272 61.9564 12.488C63.1084 13.704 63.6844 15.208 63.6844 17C63.6844 17.4 63.6444 17.824 63.5644 18.272H54.5164ZM54.4684 15.872H60.5884C60.4124 15.056 60.0444 14.448 59.4844 14.048C58.9404 13.648 58.3164 13.448 57.6124 13.448C56.7804 13.448 56.0924 13.664 55.5484 14.096C55.0044 14.512 54.6444 15.104 54.4684 15.872Z" fill="#6266BF"/>
<path d="M78.3017 8.84C76.6057 8.712 75.7577 9.392 75.7577 10.88V11H78.3017V13.976H75.7577V23H72.6617V13.976H70.9337V11H72.6617V10.88C72.6617 9.184 73.1337 7.896 74.0777 7.016C75.0217 6.136 76.4297 5.752 78.3017 5.864V8.84ZM87.6407 11H90.7367V23H87.6407V21.656C86.8887 22.776 85.6967 23.336 84.0647 23.336C82.7527 23.336 81.6647 22.896 80.8007 22.016C79.9527 21.136 79.5287 19.92 79.5287 18.368V11H82.6247V17.984C82.6247 18.784 82.8407 19.4 83.2727 19.832C83.7047 20.248 84.2807 20.456 85.0007 20.456C85.8007 20.456 86.4407 20.208 86.9207 19.712C87.4007 19.216 87.6407 18.472 87.6407 17.48V11ZM96.1883 18.272C96.6043 19.776 97.7323 20.528 99.5723 20.528C100.756 20.528 101.652 20.128 102.26 19.328L104.756 20.768C103.572 22.48 101.828 23.336 99.5243 23.336C97.5403 23.336 95.9483 22.736 94.7483 21.536C93.5483 20.336 92.9482 18.824 92.9482 17C92.9482 15.192 93.5403 13.688 94.7243 12.488C95.9083 11.272 97.4283 10.664 99.2843 10.664C101.044 10.664 102.492 11.272 103.628 12.488C104.78 13.704 105.356 15.208 105.356 17C105.356 17.4 105.316 17.824 105.236 18.272H96.1883ZM96.1403 15.872H102.26C102.084 15.056 101.716 14.448 101.156 14.048C100.612 13.648 99.9883 13.448 99.2843 13.448C98.4523 13.448 97.7643 13.664 97.2203 14.096C96.6763 14.512 96.3163 15.104 96.1403 15.872ZM107.518 23V5.48H110.614V23H107.518Z" fill="#2A2A2A"/>
<path opacity="0.4" d="M6.36914 36.4688H7.49414V45H6.36914V38.4258L2.16797 45H1.03711V36.4688H2.16797V43.043L6.36914 36.4688ZM13.4707 39.5566H10.5469V45H9.45703V38.6602H13.4707V39.5566ZM19.7695 41.9004C19.7695 42.8652 19.5488 43.6426 19.1074 44.2324C18.666 44.8223 18.0684 45.1172 17.3145 45.1172C16.5449 45.1172 15.9395 44.873 15.498 44.3848V47.4375H14.4141V38.6602H15.4043L15.457 39.3633C15.8984 38.8164 16.5117 38.543 17.2969 38.543C18.0586 38.543 18.6602 38.8301 19.1016 39.4043C19.5469 39.9785 19.7695 40.7773 19.7695 41.8008V41.9004ZM18.6855 41.7773C18.6855 41.0625 18.5332 40.498 18.2285 40.084C17.9238 39.6699 17.5059 39.4629 16.9746 39.4629C16.3184 39.4629 15.8262 39.7539 15.498 40.3359V43.3652C15.8223 43.9434 16.3184 44.2324 16.9863 44.2324C17.5059 44.2324 17.918 44.0273 18.2227 43.6172C18.5312 43.2031 18.6855 42.5898 18.6855 41.7773ZM20.8652 41.7715C20.8652 41.1504 20.9863 40.5918 21.2285 40.0957C21.4746 39.5996 21.8145 39.2168 22.248 38.9473C22.6855 38.6777 23.1836 38.543 23.7422 38.543C24.6055 38.543 25.3027 38.8418 25.834 39.4395C26.3691 40.0371 26.6367 40.832 26.6367 41.8242V41.9004C26.6367 42.5176 26.5176 43.0723 26.2793 43.5645C26.0449 44.0527 25.707 44.4336 25.2656 44.707C24.8281 44.9805 24.3242 45.1172 23.7539 45.1172C22.8945 45.1172 22.1973 44.8184 21.6621 44.2207C21.1309 43.623 20.8652 42.832 20.8652 41.8477V41.7715ZM21.9551 41.9004C21.9551 42.6035 22.1172 43.168 22.4414 43.5938C22.7695 44.0195 23.207 44.2324 23.7539 44.2324C24.3047 44.2324 24.7422 44.0176 25.0664 43.5879C25.3906 43.1543 25.5527 42.5488 25.5527 41.7715C25.5527 41.0762 25.3867 40.5137 25.0547 40.084C24.7266 39.6504 24.2891 39.4336 23.7422 39.4336C23.207 39.4336 22.7754 39.6465 22.4473 40.0723C22.1191 40.498 21.9551 41.1074 21.9551 41.9004ZM28.0957 45V38.6602H30.5684C31.4121 38.6602 32.0586 38.8086 32.5078 39.1055C32.9609 39.3984 33.1875 39.8301 33.1875 40.4004C33.1875 40.6934 33.0996 40.959 32.9238 41.1973C32.748 41.4316 32.4883 41.6113 32.1445 41.7363C32.5273 41.8262 32.834 42.002 33.0645 42.2637C33.2988 42.5254 33.416 42.8379 33.416 43.2012C33.416 43.7832 33.2012 44.2285 32.7715 44.5371C32.3457 44.8457 31.7422 45 30.9609 45H28.0957ZM29.1797 42.2168V44.127H30.9727C31.4258 44.127 31.7637 44.043 31.9863 43.875C32.2129 43.707 32.3262 43.4707 32.3262 43.166C32.3262 42.5332 31.8613 42.2168 30.9316 42.2168H29.1797ZM29.1797 41.3496H30.5801C31.5957 41.3496 32.1035 41.0527 32.1035 40.459C32.1035 39.8652 31.623 39.5586 30.6621 39.5391H29.1797V41.3496ZM34.5645 41.7715C34.5645 41.1504 34.6855 40.5918 34.9277 40.0957C35.1738 39.5996 35.5137 39.2168 35.9473 38.9473C36.3848 38.6777 36.8828 38.543 37.4414 38.543C38.3047 38.543 39.002 38.8418 39.5332 39.4395C40.0684 40.0371 40.3359 40.832 40.3359 41.8242V41.9004C40.3359 42.5176 40.2168 43.0723 39.9785 43.5645C39.7441 44.0527 39.4062 44.4336 38.9648 44.707C38.5273 44.9805 38.0234 45.1172 37.4531 45.1172C36.5938 45.1172 35.8965 44.8184 35.3613 44.2207C34.8301 43.623 34.5645 42.832 34.5645 41.8477V41.7715ZM35.6543 41.9004C35.6543 42.6035 35.8164 43.168 36.1406 43.5938C36.4688 44.0195 36.9062 44.2324 37.4531 44.2324C38.0039 44.2324 38.4414 44.0176 38.7656 43.5879C39.0898 43.1543 39.252 42.5488 39.252 41.7715C39.252 41.0762 39.0859 40.5137 38.7539 40.084C38.4258 39.6504 37.9883 39.4336 37.4414 39.4336C36.9062 39.4336 36.4746 39.6465 36.1465 40.0723C35.8184 40.498 35.6543 41.1074 35.6543 41.9004ZM45.7969 38.6602H46.8809V45H45.7969V40.377L42.873 45H41.7891V38.6602H42.873V43.2891L45.7969 38.6602ZM46.0898 36.3516C46.0898 36.8242 45.9277 37.2051 45.6035 37.4941C45.2832 37.7793 44.8613 37.9219 44.3379 37.9219C43.8145 37.9219 43.3906 37.7773 43.0664 37.4883C42.7422 37.1992 42.5801 36.8203 42.5801 36.3516H43.4648C43.4648 36.625 43.5391 36.8398 43.6875 36.9961C43.8359 37.1484 44.0527 37.2246 44.3379 37.2246C44.6113 37.2246 44.8242 37.1484 44.9766 36.9961C45.1328 36.8438 45.2109 36.6289 45.2109 36.3516H46.0898ZM56.7832 45H55.6992V39.5566H52.7812V45H51.6914V38.6602H56.7832V45ZM58.2363 41.7715C58.2363 41.1504 58.3574 40.5918 58.5996 40.0957C58.8457 39.5996 59.1855 39.2168 59.6191 38.9473C60.0566 38.6777 60.5547 38.543 61.1133 38.543C61.9766 38.543 62.6738 38.8418 63.2051 39.4395C63.7402 40.0371 64.0078 40.832 64.0078 41.8242V41.9004C64.0078 42.5176 63.8887 43.0723 63.6504 43.5645C63.416 44.0527 63.0781 44.4336 62.6367 44.707C62.1992 44.9805 61.6953 45.1172 61.125 45.1172C60.2656 45.1172 59.5684 44.8184 59.0332 44.2207C58.502 43.623 58.2363 42.832 58.2363 41.8477V41.7715ZM59.3262 41.9004C59.3262 42.6035 59.4883 43.168 59.8125 43.5938C60.1406 44.0195 60.5781 44.2324 61.125 44.2324C61.6758 44.2324 62.1133 44.0176 62.4375 43.5879C62.7617 43.1543 62.9238 42.5488 62.9238 41.7715C62.9238 41.0762 62.7578 40.5137 62.4258 40.084C62.0977 39.6504 61.6602 39.4336 61.1133 39.4336C60.5781 39.4336 60.1465 39.6465 59.8184 40.0723C59.4902 40.498 59.3262 41.1074 59.3262 41.9004ZM70.7227 41.9004C70.7227 42.8652 70.502 43.6426 70.0605 44.2324C69.6191 44.8223 69.0215 45.1172 68.2676 45.1172C67.498 45.1172 66.8926 44.873 66.4512 44.3848V47.4375H65.3672V38.6602H66.3574L66.4102 39.3633C66.8516 38.8164 67.4648 38.543 68.25 38.543C69.0117 38.543 69.6133 38.8301 70.0547 39.4043C70.5 39.9785 70.7227 40.7773 70.7227 41.8008V41.9004ZM69.6387 41.7773C69.6387 41.0625 69.4863 40.498 69.1816 40.084C68.877 39.6699 68.459 39.4629 67.9277 39.4629C67.2715 39.4629 66.7793 39.7539 66.4512 40.3359V43.3652C66.7754 43.9434 67.2715 44.2324 67.9395 44.2324C68.459 44.2324 68.8711 44.0273 69.1758 43.6172C69.4844 43.2031 69.6387 42.5898 69.6387 41.7773ZM76.3477 39.5391H74.2207V45H73.1367V39.5391H71.0508V38.6602H76.3477V39.5391ZM81.2227 45C81.1602 44.875 81.1094 44.6523 81.0703 44.332C80.5664 44.8555 79.9648 45.1172 79.2656 45.1172C78.6406 45.1172 78.127 44.9414 77.7246 44.5898C77.3262 44.2344 77.127 43.7852 77.127 43.2422C77.127 42.582 77.377 42.0703 77.877 41.707C78.3809 41.3398 79.0879 41.1562 79.998 41.1562H81.0527V40.6582C81.0527 40.2793 80.9395 39.9785 80.7129 39.7559C80.4863 39.5293 80.1523 39.416 79.7109 39.416C79.3242 39.416 79 39.5137 78.7383 39.709C78.4766 39.9043 78.3457 40.1406 78.3457 40.418H77.2559C77.2559 40.1016 77.3672 39.7969 77.5898 39.5039C77.8164 39.207 78.1211 38.9727 78.5039 38.8008C78.8906 38.6289 79.3145 38.543 79.7754 38.543C80.5059 38.543 81.0781 38.7266 81.4922 39.0938C81.9062 39.457 82.1211 39.959 82.1367 40.5996V43.5176C82.1367 44.0996 82.2109 44.5625 82.3594 44.9062V45H81.2227ZM79.4238 44.1738C79.7637 44.1738 80.0859 44.0859 80.3906 43.9102C80.6953 43.7344 80.916 43.5059 81.0527 43.2246V41.9238H80.2031C78.875 41.9238 78.2109 42.3125 78.2109 43.0898C78.2109 43.4297 78.3242 43.6953 78.5508 43.8867C78.7773 44.0781 79.0684 44.1738 79.4238 44.1738ZM89.0332 38.6602V45H87.9434V39.5566H85.7871L85.6582 41.9297C85.5879 43.0195 85.4043 43.7988 85.1074 44.2676C84.8145 44.7363 84.3477 44.9805 83.707 45H83.2734V44.0449L83.584 44.0215C83.9355 43.9824 84.1875 43.7793 84.3398 43.4121C84.4922 43.0449 84.5898 42.3652 84.6328 41.373L84.75 38.6602H89.0332Z" fill="#2A2A2A"/>
<path d="M13.632 6H10.608V7.488C9.69596 6.272 8.41596 5.664 6.76796 5.664C5.08796 5.664 4.03992 5.928 2.51996 7.464C1 9 1 11.5 1 11.5C3.5 8.5 6.27196 8.544 7.24796 8.544C8.22396 8.544 9.02396 8.856 9.64796 9.48H13.632V6Z" fill="#6266BF"/>
</svg>
